<?xml version="1.0" standalone="no"?>
<!DOCTYPE svg PUBLIC "-//W3C//DTD SVG 20010904//EN"
 "http://www.w3.org/TR/2001/REC-SVG-20010904/DTD/svg10.dtd">
<svg version="1.0" xmlns="http://www.w3.org/2000/svg"
 width="340.000000pt" height="340.000000pt" viewBox="0 0 340.000000 340.000000"
 preserveAspectRatio="xMidYMid meet">

<g transform="translate(0.000000,340.000000) scale(0.100000,-0.100000)"
fill="#000000" stroke="none">
<path d="M1536 3390 c-419 -48 -759 -211 -1046 -500 -564 -570 -649 -1457
-202 -2130 167 -253 388 -447 657 -580 481 -238 1037 -235 1520 7 322 161 587
427 749 750 138 275 199 578 176 870 -20 253 -68 431 -174 648 -237 483 -695
825 -1224 915 -136 24 -344 33 -456 20z m505 -608 c376 -85 631 -265 772 -547
154 -309 154 -761 0 -1070 -156 -311 -477 -515 -888 -564 -53 -7 -299 -11
-598 -11 -557 0 -561 0 -591 59 -14 27 -16 143 -16 1046 0 869 2 1021 15 1051
27 65 15 64 645 61 536 -3 570 -5 661 -25z"/>
<path d="M930 1700 l0 -891 513 4 c426 3 523 7 577 20 303 75 499 217 609 444
108 221 117 559 20 802 -96 241 -289 396 -599 479 -95 25 -96 25 -607 29
l-513 4 0 -891z m966 486 c134 -35 267 -147 326 -271 64 -138 62 -302 -5 -438
-31 -63 -62 -98 -237 -272 -110 -110 -205 -200 -210 -200 -5 0 -99 89 -209
198 -146 146 -207 213 -230 256 -124 233 -55 510 166 662 104 72 271 99 399
65z"/>
<path d="M1711 1979 c-127 -25 -231 -150 -231 -279 0 -63 30 -138 77 -190 135
-151 376 -118 471 65 37 72 37 178 0 251 -60 115 -190 179 -317 153z"/>
</g>
</svg>
